<svg version="1.1" id="Layer_1" xmlns="http://www.w3.org/2000/svg" xmlns:xlink="http://www.w3.org/1999/xlink" x="0px" y="0px"
	 width="100%" viewBox="0 0 674 466" enable-background="new 0 0 674 466" xml:space="preserve">
<path fill="#FFFFFF" opacity="1.000000" stroke="none" 
	d="
M89.254120,466.662598 
	C60.840206,467.000000 32.680157,466.946503 4.520994,467.080048 
	C1.597636,467.093903 0.912323,466.563873 0.914264,463.522247 
	C1.011886,310.559631 1.015072,157.596954 0.902754,4.634373 
	C0.900253,1.227824 2.014706,0.943430 4.863884,0.944210 
	C226.976349,1.005025 449.088806,1.006478 671.201294,0.931682 
	C674.202942,0.930671 675.088928,1.453680 675.086853,4.699496 
	C674.987183,157.495468 674.982849,310.291534 675.104797,463.087494 
	C675.107666,466.687256 674.152649,467.100464 670.914001,467.085693 
	C639.588928,466.942932 608.263000,467.000000 576.468628,467.000000 
	C573.977844,464.075104 574.113342,460.622253 573.627441,456.911316 
	C573.640320,453.818542 572.980591,451.251617 572.169800,448.310028 
	C571.057495,441.967285 569.676086,436.089661 568.079712,429.863159 
	C567.614990,426.472382 566.852417,423.568787 565.362427,420.486023 
	C563.435425,414.460052 561.401001,408.869415 559.139648,402.973602 
	C558.186279,399.916840 557.132385,397.297699 555.491455,394.549561 
	C552.385681,388.611694 549.859619,382.769714 546.310547,377.068115 
	C544.621521,373.673523 542.953125,370.676392 540.531250,367.741394 
	C536.299194,361.895020 532.135498,356.427582 527.727356,350.719727 
	C525.612244,347.746063 523.671509,345.068695 520.852295,342.705566 
	C515.092041,337.642151 510.346832,332.007935 504.512756,327.010986 
	C501.900208,324.048737 498.936829,322.030365 495.798401,319.694336 
	C488.876495,314.860962 482.572357,309.721222 475.019592,305.813965 
	C471.800476,303.626160 468.716980,301.949554 464.969482,300.771484 
	C460.877777,298.479523 456.443268,297.485229 453.273163,293.686676 
	C452.396698,290.865509 452.640625,288.338165 452.498901,285.413147 
	C451.011414,279.255920 451.592041,273.429016 451.723846,267.209442 
	C451.853363,266.531097 451.926270,266.269073 452.174255,265.648865 
	C453.355957,263.944489 454.927521,263.983856 456.352203,263.619629 
	C460.398621,262.585175 462.699951,259.606079 462.450470,255.812698 
	C462.189636,251.847015 459.820587,249.733887 455.122223,249.320786 
	C453.805725,249.205048 452.473053,249.275040 450.821594,248.856918 
	C450.256622,248.621597 450.042816,248.500763 449.567505,248.122391 
	C445.467163,241.753021 439.964966,237.063202 435.353699,231.609070 
	C427.942688,222.843491 419.829193,214.689804 412.550079,205.801208 
	C411.707672,204.772552 410.775909,203.797882 410.454773,202.068649 
	C410.524750,201.459732 410.602020,201.222366 410.929504,200.704208 
	C412.105438,199.713943 413.226349,199.354950 414.204773,198.742279 
	C417.143188,196.902237 418.698730,194.362183 417.881622,190.827774 
	C417.055237,187.253021 414.426758,185.855759 411.027161,185.407272 
	C406.648987,184.829712 402.095337,186.274887 397.579285,183.928284 
	C397.187531,183.343658 397.064728,183.080750 396.822144,182.386963 
	C396.303986,165.531433 396.118073,149.107254 396.931824,132.255035 
	C398.518250,129.002243 401.389404,128.342926 404.017853,127.421249 
	C410.137329,125.275406 416.152039,122.855919 422.233612,120.614792 
	C427.939362,118.512169 430.507294,114.583679 430.644653,108.485619 
	C431.041687,90.862511 429.085876,73.300911 429.453430,55.677929 
	C429.520294,52.473183 429.354797,47.980446 425.418945,47.524761 
	C421.578674,47.080143 421.244781,51.592865 420.266754,54.421394 
	C418.246979,60.262691 417.755737,66.447838 416.681458,72.497742 
	C414.729004,83.493553 410.420898,86.881668 398.871765,85.885384 
	C396.529633,84.621468 396.158447,82.644447 395.796631,80.663658 
	C391.596710,57.671909 378.870148,41.363129 357.563904,31.706741 
	C350.164368,28.353119 342.227081,27.448225 333.985382,26.181267 
	C331.730133,25.580374 329.971527,26.054060 327.903198,26.941669 
	C298.936523,29.240444 276.550568,48.490135 269.938049,76.541336 
	C269.257721,79.427483 269.121338,82.482124 267.190369,85.379822 
	C259.278717,88.479530 251.151520,84.502106 249.355804,76.794136 
	C247.846832,70.316948 246.906433,63.714664 245.686310,57.172989 
	C245.165344,54.379860 244.505585,51.593578 242.803864,49.261124 
	C240.813217,46.532654 238.710709,46.710236 237.033356,49.682949 
	C235.863327,51.756573 235.412125,54.072193 235.453171,56.420807 
	C235.755493,73.720413 233.898239,90.965691 234.278625,108.279518 
	C234.415176,114.494904 236.680847,118.289192 242.501572,120.353905 
	C249.241806,122.744789 255.921936,125.314270 262.593872,127.897034 
	C264.453522,128.616928 266.396179,129.198074 267.784180,131.392761 
	C269.165588,137.710449 268.494690,143.691986 268.533417,149.638947 
	C268.601410,160.077820 268.730072,170.519531 268.392151,181.404892 
	C268.268860,182.131897 268.198853,182.412476 267.963806,183.081116 
	C266.294525,185.577454 264.000214,185.197495 261.889954,185.291153 
	C259.235168,185.408981 256.565308,185.162766 253.919052,185.466248 
	C250.065765,185.908157 247.193085,187.739471 246.740082,191.832458 
	C246.313278,195.688889 248.516541,198.044266 252.031937,199.291458 
	C252.658386,199.513702 253.291168,199.718155 254.252487,200.125916 
	C254.789505,200.450653 254.984970,200.608795 255.343491,201.104126 
	C255.218216,205.515579 251.928360,207.802048 249.550430,210.306763 
	C237.654999,222.836502 226.397675,235.955673 213.992111,248.489502 
	C212.281143,249.281784 210.784332,249.222488 209.315002,249.347046 
	C205.368500,249.681580 202.784561,251.597015 202.459671,255.716003 
	C202.149475,259.648651 203.880859,262.360687 207.793259,263.489624 
	C209.047745,263.851593 210.385040,264.020966 211.602570,265.337158 
	C212.189514,274.686707 214.685135,283.617798 212.561096,293.079651 
	C209.599564,296.971436 205.332230,297.998444 201.252380,300.057861 
	C189.761978,305.021515 179.683548,311.587952 169.845352,319.208191 
	C166.799332,321.323578 164.119934,323.337006 161.667084,326.142090 
	C155.446091,331.089783 150.551910,336.944275 144.695084,342.276459 
	C141.677002,344.450531 139.881821,347.262939 137.677521,350.160492 
	C132.859375,355.516266 128.725876,360.971039 124.814926,367.028564 
	C122.808395,369.954163 120.792404,372.476227 119.711761,375.941467 
	C115.981995,381.852936 113.585587,388.075348 110.072144,394.104919 
	C108.366341,396.783783 106.948296,399.209290 106.208542,402.349060 
	C103.975037,408.542786 101.979492,414.436340 99.906219,420.699463 
	C98.397697,423.433868 97.319168,425.915710 97.200638,429.108704 
	C95.828377,435.372314 94.330734,441.216125 93.063072,447.518982 
	C92.265663,450.452393 91.493317,452.986084 91.363129,456.063721 
	C90.942978,459.795258 90.819168,463.171478 89.254120,466.662598 
z"/>
<path fill="#FDCF3B" opacity="1.000000" stroke="none" 
	d="
M210.794952,294.395081 
	C212.598495,284.656921 211.056641,275.326233 210.982941,265.558899 
	C211.338089,264.644928 211.924194,264.352020 213.100327,264.229797 
	C216.406937,264.781036 219.248993,264.578705 222.076767,264.579132 
	C296.074066,264.590210 370.071381,264.582031 444.068665,264.609131 
	C446.873993,264.610138 449.748291,264.145416 452.893433,265.582764 
	C453.428467,271.946625 452.829590,278.077606 453.639465,284.583435 
	C447.831360,290.086243 445.230988,296.976837 443.491669,304.069733 
	C436.502594,332.571747 436.512848,360.914215 446.318024,388.888367 
	C448.147980,394.109131 450.941223,398.799530 454.495728,403.549896 
	C454.566803,422.789673 454.602203,441.594147 454.565979,460.398529 
	C454.562164,462.387268 454.649139,464.412018 453.291046,466.615417 
	C372.979095,467.000000 292.958221,467.000000 212.468658,467.000000 
	C210.416290,465.236450 210.419540,463.044159 210.421478,460.887543 
	C210.441376,438.817810 210.253601,416.747742 210.530487,394.196655 
	C210.569763,392.763428 210.591217,391.811951 210.524994,390.395081 
	C210.440964,384.432251 210.520020,378.934570 210.477631,372.985046 
	C210.583893,369.578552 210.988052,366.612762 210.021393,363.248627 
	C209.841034,362.495575 209.782867,362.188080 209.689697,361.407532 
	C209.316422,341.159576 209.397247,321.382874 209.409714,301.606537 
	C209.411179,299.284149 209.294540,296.931396 210.794952,294.395081 
z"/>
<path fill="#FFFEFC" opacity="1.000000" stroke="none" 
	d="
M211.593735,393.036896 
	C211.704208,417.619415 211.737106,441.852356 211.884995,466.542664 
	C190.312439,467.000000 168.624878,467.000000 146.468658,467.000000 
	C145.427994,466.106598 145.722504,465.181305 145.983093,463.918243 
	C146.600540,461.792786 147.330460,460.067078 147.683304,457.864197 
	C148.714722,452.976562 150.707474,448.838684 152.936340,444.414429 
	C154.351913,442.170319 155.907288,440.433807 156.902954,437.944550 
	C158.777267,433.820435 161.216125,430.460236 163.965363,426.898926 
	C165.612564,425.240936 167.133591,423.926331 168.329514,421.882019 
	C171.037811,419.081512 172.942596,415.984497 176.054977,413.566620 
	C177.658035,412.286774 179.125748,411.353943 180.438354,409.742615 
	C182.875366,407.663788 185.079803,405.808960 187.908447,404.255951 
	C189.351044,403.465546 190.334686,402.603851 191.605331,401.575378 
	C193.605392,400.434631 195.333984,399.479889 197.254868,398.195251 
	C198.720734,397.388702 200.025070,397.031036 201.493240,396.209045 
	C204.531143,394.767212 207.238953,393.415558 210.481659,392.467163 
	C211.064743,392.531982 211.290451,392.609680 211.593735,393.036896 
z"/>
<path fill="#FFFEFD" opacity="1.000000" stroke="none" 
	d="
M453.468658,467.000000 
	C453.088165,448.085022 453.166870,429.170013 453.277496,410.255157 
	C453.290039,408.107544 453.481842,405.960999 453.580902,403.407410 
	C452.148499,400.290497 452.512573,397.436920 453.025848,394.188721 
	C456.899963,390.428894 459.207062,394.489227 462.430298,395.693909 
	C463.599365,396.312805 464.451202,396.735077 465.680847,397.159515 
	C468.283081,398.301453 470.427429,399.563110 472.803162,401.098450 
	C474.166382,402.048950 475.065552,403.047821 476.496124,403.902435 
	C479.106140,405.408539 481.479889,406.676117 483.560333,408.918030 
	C484.819550,410.877380 486.371674,412.020996 488.333008,413.196960 
	C491.728516,415.321716 493.422791,418.645416 496.263733,421.325378 
	C497.507294,423.313782 498.805725,424.818024 500.545593,426.394165 
	C503.615448,429.728973 505.461578,433.468964 507.748718,437.331116 
	C508.585968,439.890289 509.928253,441.741364 511.631836,443.789734 
	C513.588196,448.317108 515.716003,452.399902 517.091064,457.173767 
	C517.616882,459.877197 518.470276,462.094788 519.499023,464.638306 
	C519.660278,465.477997 519.604919,465.956238 519.225464,466.712036 
	C497.312439,467.000000 475.624878,467.000000 453.468658,467.000000 
z"/>
<path fill="#E35B38" opacity="1.000000" stroke="none" 
	d="
M519.468628,467.000000 
	C518.960999,466.587555 518.921997,466.175140 518.818359,465.458405 
	C518.851196,462.769745 520.850708,462.795410 522.363098,462.540924 
	C538.627197,459.804352 554.915405,457.217407 571.267151,455.050262 
	C572.270569,454.917267 573.262939,455.018860 574.524597,455.787994 
	C575.243896,459.426849 575.619934,462.785645 575.997986,466.572205 
	C557.312439,467.000000 538.624878,467.000000 519.468628,467.000000 
z"/>
<path fill="#E35B38" opacity="1.000000" stroke="none" 
	d="
M146.215942,463.848938 
	C146.350082,464.932068 146.204483,465.676514 146.029449,466.710510 
	C127.312439,467.000000 108.624878,467.000000 89.468658,467.000000 
	C89.337944,463.629181 89.675880,460.258362 90.073334,456.477295 
	C91.335793,454.878235 92.825356,454.887054 94.332512,455.123077 
	C110.914429,457.720001 127.521141,460.155090 144.101669,462.760590 
	C144.762115,462.864380 145.365860,463.159271 146.215942,463.848938 
z"/>
<path fill="#FDCF3B" opacity="1.000000" stroke="none" 
	d="
M332.635651,25.396637 
	C365.816223,25.825598 392.466980,49.223503 397.223602,81.570038 
	C397.368408,82.554688 397.587555,83.528412 397.806030,84.922951 
	C395.585815,94.755836 395.138733,104.311798 395.362061,113.958969 
	C395.490265,119.496086 396.132416,124.885696 397.931519,130.552231 
	C397.960907,147.998215 397.975128,165.021149 397.971954,182.511078 
	C396.646698,184.248840 394.984192,184.383865 393.303436,184.379288 
	C369.173798,184.313538 345.043091,184.660995 320.472534,184.089401 
	C317.556244,182.829559 317.687592,180.507401 317.669098,178.385147 
	C317.568970,166.895294 317.689819,155.404022 317.595978,143.914780 
	C317.560944,139.621964 319.745667,137.835571 323.545471,136.583267 
	C335.670898,132.587097 341.750580,123.684547 342.820648,111.262550 
	C343.827026,99.580643 339.876678,90.025299 329.925873,83.309296 
	C327.532623,81.694069 324.808289,80.930626 322.097992,80.113770 
	C319.423737,79.307785 317.807983,77.620804 317.722076,74.732643 
	C317.208801,57.471985 320.788208,41.328987 330.820862,26.959267 
	C331.204224,26.410181 331.720612,25.981516 332.635651,25.396637 
z"/>
<path fill="#B1EFE9" opacity="1.000000" stroke="none" 
	d="
M488.025970,203.068893 
	C471.148560,204.357010 466.270569,198.434570 466.822662,182.597900 
	C467.442963,164.804688 466.943085,146.973175 466.976685,129.158417 
	C466.995270,119.305191 472.266998,113.962997 481.945496,113.958359 
	C515.077759,113.942474 548.209961,113.942070 581.342224,113.958595 
	C590.937988,113.963379 596.025635,119.099876 596.032898,128.750443 
	C596.047852,148.563171 596.046936,168.375946 596.032532,188.188690 
	C596.025330,198.075821 590.966675,203.059479 580.924622,203.063400 
	C550.123291,203.075424 519.321960,203.068405 488.025970,203.068893 
z"/>
<path fill="#FCAD3E" opacity="1.000000" stroke="none" 
	d="
M332.776306,24.947845 
	C328.436676,33.434532 323.379089,41.426445 321.497955,50.902782 
	C319.979095,58.554047 318.629730,66.174660 318.922211,74.038750 
	C319.024689,76.793938 319.730743,78.549179 322.591217,78.946754 
	C335.014648,80.673485 346.197266,95.418015 344.182526,111.702370 
	C342.461609,125.611992 335.773376,134.772339 322.109650,138.411957 
	C319.117615,139.208954 318.935333,141.104233 318.951935,143.629349 
	C319.036285,156.443710 318.995911,169.258896 319.004944,182.543213 
	C320.734680,183.961288 322.605804,183.488251 324.401398,183.491714 
	C348.718109,183.538528 373.034973,183.493042 397.833649,183.624374 
	C402.118622,183.727188 405.923431,183.670502 409.724457,183.764679 
	C415.821777,183.915726 419.338348,186.783798 419.844788,191.879044 
	C420.255768,196.013885 417.299316,199.449402 411.540649,201.126526 
	C408.980957,202.767807 406.424652,202.391159 403.967010,202.393555 
	C377.935852,202.418900 351.904724,202.402710 325.873566,202.417450 
	C323.723145,202.418671 321.562256,202.242889 319.044952,202.805206 
	C317.253967,203.694107 316.441406,204.917618 315.868591,206.329910 
	C310.706848,219.056580 305.437347,231.739014 300.238770,244.450546 
	C300.050018,244.912064 300.020905,245.411743 300.375000,246.180206 
	C319.232544,246.771072 337.839386,246.549576 356.445465,246.578201 
	C385.025055,246.622177 413.604767,246.584076 442.184448,246.599136 
	C444.666382,246.600433 447.179504,246.353073 450.063843,247.323669 
	C451.518982,247.541779 452.504639,247.683350 453.494934,247.734589 
	C460.435303,248.093643 463.995544,250.982117 464.082733,256.350098 
	C464.164093,261.360596 460.760468,264.456635 453.855591,265.397339 
	C373.602570,265.448639 293.725677,265.556976 213.395538,265.219818 
	C212.474670,265.021088 212.007080,265.032318 211.190826,265.080811 
	C204.354294,264.721527 200.910461,261.751617 200.877991,256.525116 
	C200.841888,250.712936 204.657181,247.880341 213.128815,247.768066 
	C214.118774,247.542587 214.712296,247.309769 215.781403,246.999603 
	C228.061523,246.227478 239.887253,246.756256 251.707382,246.598862 
	C264.694275,246.425934 277.685455,246.906830 291.041718,246.177155 
	C292.454559,245.419540 293.298157,244.612503 293.756317,243.519608 
	C299.369537,230.130020 305.352661,216.889664 309.898499,202.850403 
	C293.947876,202.197220 278.187195,202.517731 262.428253,202.386719 
	C260.128082,202.367599 257.764801,202.740051 255.177704,201.416504 
	C248.448212,200.432068 244.828857,197.078995 245.061478,192.183319 
	C245.306885,187.018768 249.080734,183.902664 255.386368,183.760925 
	C258.851654,183.683029 262.319885,183.735413 266.232788,183.720520 
	C268.781952,182.399048 271.140198,182.607727 273.452576,182.604080 
	C284.402557,182.586807 295.352631,182.614563 306.302490,182.580017 
	C308.107239,182.574326 309.957611,182.897034 312.041809,181.893463 
	C313.710938,180.337845 313.604950,178.631714 313.608582,176.977798 
	C313.631439,166.505295 313.548309,156.031921 313.660278,145.560684 
	C313.695557,142.262497 312.534515,140.388763 309.314697,139.299683 
	C285.971985,131.404358 279.828583,99.985924 299.253754,83.320862 
	C302.217010,80.778641 305.494904,78.841492 309.217712,77.847847 
	C312.554932,76.957123 313.618988,74.960655 313.657166,71.678452 
	C313.805969,58.878365 316.731689,46.648712 321.777863,34.922905 
	C323.148315,31.738266 324.486694,28.458607 327.794373,26.050594 
	C329.478973,25.052181 330.596130,23.050766 332.776306,24.947845 
z"/>
<path fill="#B1EFE9" opacity="1.000000" stroke="none" 
	d="
M93.026276,156.997498 
	C118.179268,156.997543 142.837097,156.992676 167.494934,157.000244 
	C176.338623,157.002960 179.892990,160.500870 179.929031,169.376511 
	C179.978424,181.538620 179.987076,193.701324 179.925110,205.863327 
	C179.883118,214.104156 175.867767,217.993591 167.569977,217.996216 
	C140.746262,218.004700 113.922531,218.008865 87.098816,217.993896 
	C78.381317,217.989029 75.016426,214.617645 75.003899,205.914429 
	C74.986160,193.585526 74.994263,181.256592 75.001038,168.927673 
	C75.005928,160.046249 78.076035,157.009201 87.033104,156.997879 
	C88.865768,156.995575 90.698441,156.997513 93.026276,156.997498 
z"/>
<path fill="#FDCF3B" opacity="1.000000" stroke="none" 
	d="
M327.607117,25.714685 
	C320.793030,37.892887 315.669281,51.174789 315.603516,65.122093 
	C315.556702,75.056480 311.476379,78.246239 303.495880,82.177887 
	C287.265808,90.173752 284.220215,116.285461 296.757965,129.363571 
	C300.907745,133.692230 305.464264,137.216629 311.301453,138.491272 
	C314.508942,139.191696 315.084381,140.729263 315.054657,143.624725 
	C314.923035,156.450943 314.989563,169.279205 314.970825,182.578323 
	C306.729095,184.007370 298.472046,183.336777 290.229614,183.454346 
	C282.790100,183.560471 275.346619,183.557892 267.466736,183.206390 
	C267.012238,165.975494 266.996368,148.965942 266.976898,131.489105 
	C266.017487,129.424271 265.454590,127.720543 265.445374,125.834450 
	C265.386780,113.879387 265.343719,101.924332 265.476990,89.969582 
	C265.491852,88.636131 265.700104,87.319450 266.747742,85.783035 
	C271.008057,54.466419 290.804932,32.451710 320.225037,26.430216 
	C322.490509,25.966536 324.843079,25.928577 327.607117,25.714685 
z"/>
<path fill="#FDCF3B" opacity="1.000000" stroke="none" 
	d="
M298.453156,247.209290 
	C303.989929,232.217743 309.973969,217.446655 316.012268,202.305237 
	C316.982361,201.386124 318.000336,201.519211 318.989960,201.520370 
	C349.295563,201.556030 379.601288,201.431961 410.331055,201.832962 
	C423.874725,216.886765 436.994171,231.686234 450.230103,246.826263 
	C449.557159,247.502243 448.723450,247.484009 447.889526,247.483459 
	C398.226501,247.450806 348.563416,247.555740 298.453156,247.209290 
z"/>
<path fill="#B1EFE9" opacity="1.000000" stroke="none" 
	d="
M120.958099,117.961121 
	C120.958687,109.142662 120.922173,100.817101 120.971489,92.492043 
	C121.012482,85.571594 124.511589,82.026054 131.412445,82.014801 
	C154.556839,81.977051 177.701385,81.975571 200.845764,82.016335 
	C207.253082,82.027618 211.712799,85.998566 211.862564,92.398132 
	C212.115707,103.215027 212.164047,114.049278 211.840439,124.862518 
	C211.639771,131.567871 207.579117,134.977646 200.768768,134.988831 
	C178.123886,135.025986 155.478912,135.007401 132.833969,135.001328 
	C123.976051,134.998962 120.976189,131.943695 120.959198,122.949898 
	C120.956367,121.451355 120.958382,119.952789 120.958099,117.961121 
z"/>
<path fill="#FDCF3B" opacity="1.000000" stroke="none" 
	d="
M311.570831,201.799194 
	C306.021118,216.794006 300.034698,231.561859 293.993530,246.695847 
	C292.188812,247.862411 290.334747,247.459015 288.534058,247.464386 
	C264.620697,247.535583 240.707062,247.401901 216.360809,247.772003 
	C215.396454,247.972595 214.864960,247.947647 213.934937,247.863266 
	C227.302917,232.750809 241.069458,217.697800 255.017883,202.359406 
	C256.202942,201.234741 257.408478,201.526321 258.537048,201.527618 
	C276.069397,201.547638 293.601898,201.440613 311.570831,201.799194 
z"/>
<path fill="#E36C4F" opacity="1.000000" stroke="none" 
	d="
M211.240295,392.845215 
	C208.270782,394.331726 205.477692,395.514313 202.341125,396.770020 
	C197.867752,391.709656 196.081985,385.404541 193.478043,379.529266 
	C185.390259,361.280762 177.481537,342.952942 169.445816,324.681030 
	C168.716095,323.021759 167.696701,321.408203 168.658783,319.127686 
	C178.340317,311.287567 188.567444,304.937897 199.711304,299.417969 
	C201.536682,300.609375 201.884399,302.440613 202.155609,304.237335 
	C204.733582,321.315674 208.398926,338.222656 210.190918,355.427917 
	C210.398300,357.419128 210.342621,359.402557 210.805695,361.720306 
	C211.127289,362.290741 211.190903,362.520905 211.340088,363.098816 
	C211.574707,366.078491 211.399124,368.714783 211.712036,371.698700 
	C211.875702,377.669312 211.860260,383.288086 211.873688,389.362671 
	C211.351700,390.656677 211.539352,391.626678 211.240295,392.845215 
z"/>
<path fill="#FCAD3F" opacity="1.000000" stroke="none" 
	d="
M398.289459,130.831604 
	C393.856079,128.575150 394.534912,124.032570 394.344635,120.633354 
	C393.789520,110.715240 393.061676,100.684242 395.259033,90.827652 
	C395.643372,89.103798 396.007446,87.203949 397.675293,85.627518 
	C398.006165,85.340775 398.173492,85.356720 398.338348,85.343010 
	C413.128082,84.112778 413.786957,83.438889 415.987823,68.796188 
	C416.921265,62.585762 417.488617,56.257858 420.106689,50.438038 
	C421.171051,48.071999 422.162964,45.127785 425.451447,45.286610 
	C428.769501,45.446854 429.246063,48.436493 430.097443,50.943733 
	C431.473785,54.996994 430.917511,59.176067 431.003876,63.306782 
	C431.319702,78.411102 431.623535,93.516060 431.827728,108.622177 
	C431.931000,116.263107 430.071747,118.958633 422.870270,121.712570 
	C414.823547,124.789726 406.714264,127.703224 398.289459,130.831604 
z"/>
<path fill="#FCAD3F" opacity="1.000000" stroke="none" 
	d="
M266.718994,85.422882 
	C267.057678,100.313133 267.022980,115.197899 266.980774,130.552246 
	C258.299133,127.736732 249.629166,124.440491 240.949326,121.170479 
	C235.241287,119.020065 233.112289,116.338531 233.180588,110.443626 
	C233.392578,92.149063 233.615128,73.852585 234.129196,55.565163 
	C234.241013,51.587376 234.402130,46.097176 239.409760,45.531437 
	C244.366302,44.971470 245.228806,50.354496 246.145996,54.052101 
	C247.701660,60.323864 248.689468,66.742897 249.768539,73.124962 
	C251.420013,82.892303 256.157288,86.458527 266.718994,85.422882 
z"/>
<path fill="#E35B38" opacity="1.000000" stroke="none" 
	d="
M463.295715,396.633362 
	C460.227844,395.648590 457.465240,394.431641 454.357910,393.145081 
	C453.831421,392.861450 453.649719,392.647522 453.331909,392.035400 
	C454.813232,379.771240 458.363129,368.332428 461.007050,356.695709 
	C464.463623,341.482147 468.144043,326.317200 471.797699,311.148041 
	C472.295837,309.080017 472.522522,306.851349 474.629242,305.103516 
	C482.524719,308.442139 488.916443,313.692871 495.888733,318.626160 
	C497.137360,320.371368 496.417358,321.760620 495.823975,323.116913 
	C485.258026,347.266754 474.663452,371.404053 464.161316,395.581757 
	C464.030640,395.882599 463.805756,396.139191 463.295715,396.633362 
z"/>
<path fill="#E35A38" opacity="1.000000" stroke="none" 
	d="
M473.316467,402.345886 
	C470.695190,401.258392 468.409271,400.035278 465.850342,398.592896 
	C464.881500,396.641724 465.548584,395.107758 466.344543,393.638275 
	C477.782532,372.521881 489.092773,351.337738 500.233124,330.062531 
	C501.135773,328.338715 502.098785,326.496124 504.591736,325.943542 
	C510.926300,330.398163 515.763977,335.971375 521.230957,341.356537 
	C522.127502,343.480377 521.108643,344.788361 520.030396,346.110931 
	C505.632629,363.770020 491.137207,381.349640 476.886169,399.128143 
	C475.951080,400.294708 474.974701,401.440094 473.316467,402.345886 
z"/>
<path fill="#E35A38" opacity="1.000000" stroke="none" 
	d="
M198.219589,398.688354 
	C196.244324,400.025635 194.472809,401.046143 192.363953,402.150909 
	C186.799255,399.462555 184.255615,394.190643 180.680756,389.908508 
	C168.866959,375.757477 157.385315,361.333099 145.739120,347.043793 
	C144.609283,345.657501 143.083282,344.430786 143.473099,341.965698 
	C148.892609,336.103455 154.137161,330.499603 160.586487,325.681213 
	C164.972046,328.574921 166.160034,333.503906 168.408951,337.646088 
	C178.084473,355.466919 187.530197,373.414459 197.032120,391.330383 
	C198.178467,393.491791 199.654022,395.693176 198.219589,398.688354 
z"/>
<path fill="#E35A38" opacity="1.000000" stroke="none" 
	d="
M189.017242,404.540039 
	C186.565262,406.604675 184.217682,408.326019 181.597992,410.244019 
	C179.246994,410.794586 177.886047,409.388519 176.452271,408.331085 
	C159.984406,396.186249 143.527740,384.025940 127.224762,371.659729 
	C125.787163,370.569336 124.096481,369.665436 123.820633,367.281128 
	C127.429718,360.883972 131.976562,355.583313 136.407837,349.788330 
	C140.032333,349.482330 141.506760,352.267822 143.282883,354.285675 
	C152.085648,364.286469 161.424515,373.784332 170.680740,383.345886 
	C176.359467,389.211945 181.453049,395.607666 187.365463,401.244202 
	C188.209595,402.049011 188.947189,402.968750 189.017242,404.540039 
z"/>
<path fill="#E35A38" opacity="1.000000" stroke="none" 
	d="
M483.343628,410.189545 
	C480.923981,408.391724 478.790222,406.817657 476.370026,405.068878 
	C475.511932,403.099304 476.805756,402.074493 477.825439,401.067841 
	C481.615265,397.326508 484.941589,393.154083 488.621399,389.335388 
	C500.151459,377.370300 511.663086,365.393311 522.809509,353.067413 
	C524.123535,351.614349 525.390259,349.970734 527.869446,349.669983 
	C533.043030,354.801239 536.759888,360.688019 541.011597,366.573059 
	C541.622620,369.212646 539.801758,370.129181 538.394531,371.172516 
	C521.600098,383.623779 504.810730,396.081451 488.106323,408.653595 
	C486.813782,409.626373 485.497620,410.790344 483.343628,410.189545 
z"/>
<path fill="#E35B38" opacity="1.000000" stroke="none" 
	d="
M496.123474,422.377930 
	C493.291748,419.680389 490.807831,417.136688 488.132874,414.321045 
	C487.485382,411.647644 489.482727,410.906647 490.908295,409.973389 
	C507.848114,398.883148 524.876526,387.928406 541.751831,376.739075 
	C543.127869,375.826721 544.533569,374.825348 546.646973,375.805664 
	C549.980896,381.772614 553.020813,387.519165 556.146973,393.621338 
	C554.843933,396.814331 551.900269,397.505768 549.409607,398.630463 
	C533.219849,405.941162 517.380615,413.995270 501.179016,421.277191 
	C499.681305,421.950378 498.256409,422.924927 496.123474,422.377930 
z"/>
<path fill="#E35A38" opacity="1.000000" stroke="none" 
	d="
M177.155746,413.699799 
	C174.626968,416.650208 172.189713,419.243988 169.486664,422.042297 
	C167.683441,422.835236 166.229660,422.344452 164.907593,421.684875 
	C146.388718,412.446075 127.239029,404.511047 108.803673,394.335510 
	C111.742943,388.020721 114.902222,382.016876 118.332306,375.788269 
	C120.618347,374.807190 122.113655,375.977844 123.633858,376.959961 
	C140.317947,387.738342 157.013199,398.499878 173.517807,409.552643 
	C175.004395,410.548187 176.736755,411.361267 177.155746,413.699799 
z"/>
<path fill="#E35B38" opacity="1.000000" stroke="none" 
	d="
M507.382812,438.223999 
	C504.723389,434.573120 502.382965,431.179077 499.906189,427.472168 
	C499.679169,424.658051 501.812531,424.366425 503.389374,423.709717 
	C520.121399,416.741302 536.827637,409.710876 553.578064,402.786865 
	C555.401123,402.033295 557.207336,401.043365 559.622986,401.797363 
	C561.984253,407.716278 564.039368,413.395844 566.178955,419.448700 
	C566.376587,422.555359 564.200562,422.969604 562.339600,423.548248 
	C546.116760,428.592163 529.806641,433.347992 513.535400,438.232361 
	C511.651367,438.797943 509.690613,439.492096 507.382812,438.223999 
z"/>
<path fill="#E35A37" opacity="1.000000" stroke="none" 
	d="
M165.220474,426.677063 
	C163.059204,430.512390 160.740585,433.994568 158.180679,437.723053 
	C156.342453,439.447479 154.534546,439.006470 152.764282,438.471436 
	C136.042892,433.418091 119.315170,428.385895 102.574661,423.396179 
	C101.298332,423.015778 100.050652,422.540039 98.754097,421.345459 
	C100.033562,414.723846 102.138344,408.631897 105.040939,402.429871 
	C106.596062,400.773224 108.032555,401.663361 109.344200,402.202698 
	C126.869896,409.409180 144.331619,416.769714 161.820541,424.064880 
	C163.045944,424.576050 164.209686,425.245056 165.220474,426.677063 
z"/>
<path fill="#E35B38" opacity="1.000000" stroke="none" 
	d="
M516.462036,458.212677 
	C514.335510,453.539917 512.539673,449.148132 510.629150,444.394623 
	C511.316071,442.294830 512.987305,441.906921 514.589966,441.489136 
	C530.861023,437.247284 547.111389,432.926208 563.394958,428.732544 
	C564.992493,428.321106 566.620911,427.798737 568.611572,428.779236 
	C570.843384,434.958313 572.305969,440.985962 573.157043,447.585999 
	C571.975769,449.887878 569.954529,450.112000 568.002441,450.443512 
	C552.675903,453.046509 537.407288,455.968781 522.111694,458.742279 
	C520.324463,459.066376 518.522644,459.491333 516.462036,458.212677 
z"/>
<path fill="#E35A38" opacity="1.000000" stroke="none" 
	d="
M154.230591,443.656403 
	C152.679367,448.391663 150.876572,452.796722 148.945663,457.555267 
	C147.633469,459.153839 146.136917,459.103241 144.637405,458.842834 
	C128.100098,455.970856 111.589188,452.952057 95.088242,449.878906 
	C94.104507,449.695679 93.193565,449.265533 92.095100,448.336182 
	C92.400330,441.762543 94.122208,435.766846 95.931305,429.397675 
	C97.174194,427.997650 98.485756,428.069153 99.807579,428.414215 
	C117.152496,432.941589 134.500092,437.459076 151.801941,442.149353 
	C152.604065,442.366760 153.326431,442.798340 154.230591,443.656403 
z"/>
<path fill="#E35B38" opacity="1.000000" stroke="none" 
	d="
M453.517578,293.940491 
	C457.602936,295.669861 461.241730,297.417145 465.170776,299.368530 
	C466.344086,301.463287 466.243988,303.408630 465.911530,305.412598 
	C461.950928,329.287445 457.700897,353.113251 453.789246,376.996460 
	C453.499268,378.766846 453.406708,380.663116 451.493835,382.121399 
	C448.947449,381.271454 448.514130,379.238281 448.128357,377.311005 
	C443.500671,354.191040 441.495453,330.993927 446.729340,307.692230 
	C447.845093,302.724762 448.881256,297.573639 453.517578,293.940491 
z"/>
<path fill="#FCAC3E" opacity="1.000000" stroke="none" 
	d="
M453.910889,293.481079 
	C448.424866,301.237091 447.280334,310.064880 446.200317,318.665039 
	C443.539673,339.852417 445.574585,360.812042 450.844727,381.869324 
	C452.838226,385.015656 453.275238,388.186218 453.743469,391.717651 
	C453.952332,392.205963 453.963867,392.379883 453.994263,392.814575 
	C453.927826,396.087311 453.842560,399.099213 453.664307,402.556030 
	C448.329956,399.373505 446.587891,393.564026 444.604126,388.048950 
	C440.501923,376.644714 438.854828,364.822205 437.746979,352.713867 
	C436.213287,335.951019 438.624969,319.791656 442.107605,303.632874 
	C443.189301,298.614014 445.404175,293.907379 447.860870,289.377136 
	C448.975098,287.322418 450.259277,285.356384 453.237549,285.000732 
	C453.669891,287.672272 453.763794,290.355927 453.910889,293.481079 
z"/>
<path fill="#E29584" opacity="1.000000" stroke="none" 
	d="
M454.015045,391.645508 
	C451.805359,389.398712 451.083221,386.306793 450.996857,382.623016 
	C453.430847,374.352142 454.051758,366.117432 455.469818,358.037628 
	C458.834259,338.867828 461.971100,319.658051 465.330475,300.018555 
	C468.771942,300.699341 471.844238,302.287994 474.842529,304.631470 
	C470.672852,322.768768 466.335327,340.607971 462.010376,358.450195 
	C459.360046,369.384033 456.729004,380.322540 454.015045,391.645508 
z"/>
<path fill="#E29584" opacity="1.000000" stroke="none" 
	d="
M504.832764,325.721252 
	C503.087585,326.574768 502.604218,328.389252 501.867371,329.770325 
	C489.812775,352.363098 477.847015,375.003265 465.719299,398.003174 
	C464.803680,398.062256 464.029999,397.750885 463.123352,397.152527 
	C465.025726,388.069977 469.583679,380.281769 473.050171,372.070587 
	C480.468719,354.497955 488.301025,337.100006 496.026855,319.261780 
	C499.503754,320.349854 501.908752,323.141296 504.832764,325.721252 
z"/>
<path fill="#E29584" opacity="1.000000" stroke="none" 
	d="
M198.347168,398.945404 
	C198.382645,393.807648 195.023499,389.977173 192.869690,385.814362 
	C186.183212,372.891052 179.105667,360.170624 172.234833,347.342010 
	C168.485138,340.340881 164.846558,333.280273 161.028229,325.883728 
	C162.649902,322.584198 165.726105,321.112823 168.506439,318.867554 
	C171.098129,326.642517 175.000488,333.816925 178.184586,341.282990 
	C185.999207,359.606567 194.003021,377.849457 201.964172,396.484009 
	C201.323929,398.227112 199.716583,398.093842 198.347168,398.945404 
z"/>
<path fill="#E29382" opacity="1.000000" stroke="none" 
	d="
M528.137390,349.440186 
	C521.835632,356.303345 515.379150,362.760101 509.099121,369.384094 
	C498.118256,380.966461 487.245758,392.651550 476.205688,404.593903 
	C475.172668,404.231445 474.261749,403.568665 473.165955,402.693726 
	C482.324402,390.857605 491.678894,379.242554 501.007385,367.606750 
	C507.747192,359.199890 514.452515,350.765381 521.305420,341.981262 
	C523.645813,344.115906 525.854004,346.612488 528.137390,349.440186 
z"/>
<path fill="#E29483" opacity="1.000000" stroke="none" 
	d="
M189.204559,404.812592 
	C184.139923,399.630402 179.452667,394.296417 174.577271,389.140320 
	C162.191223,376.041229 149.720978,363.021759 136.971298,349.764648 
	C138.763870,347.006805 140.869583,344.454681 143.268463,341.759155 
	C147.185944,348.402435 152.783371,353.685181 157.493469,359.627838 
	C168.709106,373.778320 180.304886,387.627533 191.886871,401.916809 
	C191.183182,403.070740 190.339737,403.906281 189.204559,404.812592 
z"/>
<path fill="#E29382" opacity="1.000000" stroke="none" 
	d="
M546.885986,375.683899 
	C545.985046,376.200684 544.848206,376.099396 544.099670,376.590302 
	C525.445557,388.825287 506.832367,401.122772 488.076843,413.729126 
	C486.392334,412.889771 484.842896,411.730469 483.175568,410.268494 
	C489.362000,407.556427 493.960327,402.634796 499.272827,398.794708 
	C512.798157,389.018066 526.117981,378.957123 539.506287,368.991394 
	C540.026428,368.604218 540.404053,368.025665 540.988037,367.214722 
	C543.687561,369.264862 544.914001,372.536377 546.885986,375.683899 
z"/>
<path fill="#E29483" opacity="1.000000" stroke="none" 
	d="
M177.360199,413.937561 
	C171.554810,408.749329 164.776642,405.233917 158.477142,401.068024 
	C145.529419,392.505554 132.397202,384.222046 118.972031,375.693604 
	C119.428230,372.374969 121.533318,369.920776 123.628891,367.114258 
	C129.287491,372.849579 136.225204,376.820099 142.478073,381.624176 
	C155.062775,391.292999 167.940582,400.580292 181.011688,410.232849 
	C180.102661,411.566711 178.879410,412.692719 177.360199,413.937561 
z"/>
<path fill="#E29382" opacity="1.000000" stroke="none" 
	d="
M165.640015,426.870117 
	C145.546906,418.725281 125.715996,410.420319 105.528709,402.100647 
	C105.184082,399.171600 107.453590,397.155365 108.381760,394.274933 
	C116.995239,396.714355 124.467644,401.460571 132.504257,404.991608 
	C144.649109,410.327667 156.529724,416.265137 168.871750,422.096893 
	C168.871216,424.297058 166.866333,425.116608 165.640015,426.870117 
z"/>
<path fill="#E29585" opacity="1.000000" stroke="none" 
	d="
M559.915405,401.677063 
	C547.748901,405.895599 536.317322,411.618958 524.469604,416.308777 
	C516.314087,419.537109 508.307587,423.141937 500.002136,426.868896 
	C498.504791,425.718506 497.239807,424.277618 495.875244,422.530426 
	C507.193909,416.974670 518.637939,411.780396 530.021912,406.457611 
	C538.567871,402.461761 547.036621,398.300690 555.886475,394.095062 
	C558.441162,395.931427 558.479370,398.970337 559.915405,401.677063 
z"/>
<path fill="#E29483" opacity="1.000000" stroke="none" 
	d="
M154.711014,443.781128 
	C135.269302,438.995972 116.056465,434.005310 96.453972,429.024445 
	C95.865005,426.292511 96.756470,423.833801 98.266678,421.245972 
	C115.967270,426.190094 133.425262,431.368958 150.890579,436.522919 
	C152.942383,437.128387 154.896805,438.186066 157.539398,437.982147 
	C157.751953,440.272827 155.846619,441.657104 154.711014,443.781128 
z"/>
<path fill="#E29585" opacity="1.000000" stroke="none" 
	d="
M568.969238,428.638611 
	C551.322998,433.513641 533.704651,437.992249 516.089355,442.482941 
	C514.490601,442.890503 512.911682,443.375671 510.919006,443.928833 
	C508.602020,442.726105 508.017212,440.571838 507.069519,438.306366 
	C513.178162,437.972900 518.625244,435.195160 524.334778,433.624237 
	C537.743835,429.934875 551.008606,425.719940 564.318970,421.675537 
	C564.905457,421.497345 565.365173,420.902161 566.073608,420.161591 
	C567.824402,422.418945 568.662415,425.250641 568.969238,428.638611 
z"/>
<path fill="#E29483" opacity="1.000000" stroke="none" 
	d="
M91.541016,448.256073 
	C110.545761,451.320435 129.278244,454.634705 148.414154,457.928894 
	C148.193146,459.793427 147.568741,461.678101 146.720001,463.875183 
	C127.981262,461.466431 109.466858,458.745270 90.542656,456.045593 
	C89.642494,453.416168 91.254730,451.081146 91.541016,448.256073 
z"/>
<path fill="#E29585" opacity="1.000000" stroke="none" 
	d="
M516.122192,458.294556 
	C526.716675,457.022644 537.004822,454.333649 547.466431,452.672607 
	C555.802917,451.348969 564.077820,449.637054 572.795349,448.051636 
	C574.297607,450.308075 574.673096,452.782410 574.918091,455.672119 
	C562.666809,457.840454 550.459167,459.569214 538.267456,461.403198 
	C531.937561,462.355377 525.635620,463.493683 519.037354,464.851013 
	C517.873474,462.988556 516.993286,460.822968 516.122192,458.294556 
z"/>
<path fill="#E35A37" opacity="1.000000" stroke="none" 
	d="
M211.092880,361.586273 
	C208.401062,354.104431 207.750168,345.738434 206.213440,337.561218 
	C203.877151,325.129517 202.077667,312.596893 200.043274,299.708313 
	C203.472336,297.572144 206.908295,295.834778 210.697723,294.038513 
	C211.074829,316.357025 211.098465,338.734497 211.092880,361.586273 
z"/>
<path fill="#FED279" opacity="1.000000" stroke="none" 
	d="
M213.243561,265.306488 
	C290.631561,265.011414 368.320892,265.011658 446.010193,265.021393 
	C448.170258,265.021667 450.330292,265.123688 452.984894,265.331116 
	C453.479431,265.483948 453.431946,265.673401 453.378174,265.751801 
	C451.161316,265.882812 448.998199,265.981262 446.835083,265.981506 
	C371.050781,265.989410 295.266479,265.990997 219.482178,265.971954 
	C217.503036,265.971466 215.523956,265.731445 213.243561,265.306488 
z"/>
<path fill="#FDD474" opacity="1.000000" stroke="none" 
	d="
M297.911438,247.278778 
	C348.449768,247.010666 398.893646,247.032501 449.842102,247.110596 
	C450.346649,247.166840 450.449097,247.300293 450.490143,247.371155 
	C448.890259,247.626984 447.249451,247.972549 445.608429,247.973526 
	C397.294159,248.002472 348.979858,247.999619 300.665588,247.979462 
	C299.715973,247.979065 298.766510,247.711594 297.911438,247.278778 
z"/>
<path fill="#FDD474" opacity="1.000000" stroke="none" 
	d="
M410.873566,201.859009 
	C379.499634,202.049606 348.243988,202.011887 316.527435,201.954559 
	C317.402679,200.446976 319.181091,201.030350 320.773590,201.028900 
	C350.587616,201.002014 380.401703,201.017517 410.695007,201.087021 
	C411.113464,201.310165 411.052673,201.470444 410.873566,201.859009 
z"/>
<path fill="#FED279" opacity="1.000000" stroke="none" 
	d="
M398.251282,183.518921 
	C372.069672,184.109177 345.824036,184.299088 319.295044,183.317886 
	C345.015442,183.008636 371.020233,183.004623 397.489807,182.989334 
	C397.954559,182.978058 398.187073,183.321671 398.251282,183.518921 
z"/>
<path fill="#FDD474" opacity="1.000000" stroke="none" 
	d="
M312.110077,201.734711 
	C293.372437,202.031525 274.737305,202.036896 255.650970,202.058136 
	C255.199753,202.074020 254.957672,201.646881 254.870056,201.417999 
	C273.926819,201.051559 293.072815,200.547028 312.110077,201.734711 
z"/>
<path fill="#FED279" opacity="1.000000" stroke="none" 
	d="
M266.914856,183.154327 
	C282.695282,182.996979 298.362457,183.008896 314.493408,183.035370 
	C313.981476,184.318680 312.572449,183.980911 311.293610,183.979736 
	C296.747711,183.966400 282.201813,183.927200 267.167358,183.803452 
	C266.678833,183.711990 266.801575,183.323578 266.914856,183.154327 
z"/>
<path fill="#F9AC3E" opacity="1.000000" stroke="none" 
	d="
M248.776917,396.287231 
	C241.888809,390.649872 239.847305,383.516388 239.941101,375.229553 
	C240.142853,357.404785 239.993149,339.576172 240.006119,321.749115 
	C240.017029,306.744476 249.688400,297.002747 264.557678,297.001251 
	C299.378723,296.997803 334.202057,297.221558 369.019501,296.868317 
	C379.729767,296.759674 392.198273,306.672028 392.052795,320.112213 
	C391.841888,339.603058 392.012634,359.097870 391.993622,378.591003 
	C391.981415,391.125000 381.970551,401.864655 369.526520,401.927826 
	C333.873352,402.108765 298.218506,402.047607 262.564819,401.927887 
	C257.513885,401.910919 252.719788,400.407776 248.776917,396.287231 
z"/>
<path fill="#FBAC3E" opacity="1.000000" stroke="none" 
	d="
M329.000000,429.010986 
	C305.019897,429.010773 281.536713,428.793030 258.061432,429.129761 
	C249.967514,429.245850 247.687500,425.931610 247.122375,420.537689 
	C246.602814,415.578674 251.606735,412.019348 258.425781,412.013123 
	C286.402069,411.987640 314.378326,412.002441 342.354614,412.002441 
	C353.178772,412.002441 364.003082,411.969086 374.827026,412.015594 
	C380.860352,412.041504 385.127197,415.971130 384.992218,421.221069 
	C384.859589,426.377747 381.519196,428.997650 374.961487,429.004913 
	C359.807648,429.021667 344.653839,429.010712 329.000000,429.010986 
z"/>
<path fill="#FCB03E" opacity="1.000000" stroke="none" 
	d="
M336.642273,447.489960 
	C338.840942,451.839935 337.449921,455.073364 334.007812,457.203430 
	C331.541260,458.729797 328.614868,458.681091 326.141205,456.624237 
	C322.641754,453.714569 322.183777,449.754303 324.954712,446.616241 
	C328.164673,442.980988 332.567230,443.185425 336.642273,447.489960 
z"/>
<path fill="#FCB03E" opacity="1.000000" stroke="none" 
	d="
M302.741333,457.986603 
	C298.037933,458.239136 295.418640,456.578186 294.962982,451.976501 
	C294.530182,447.605438 296.249176,444.896210 300.559143,444.093231 
	C305.040131,443.258392 307.610504,445.929840 308.640442,449.705719 
	C309.848816,454.135712 307.727539,457.035156 302.741333,457.986603 
z"/>
<path fill="#FCB03E" opacity="1.000000" stroke="none" 
	d="
M271.313354,444.107635 
	C275.959595,444.147675 279.269318,445.853607 279.891052,450.312927 
	C280.381409,453.829681 279.139679,457.114960 275.146271,457.889252 
	C271.593109,458.578217 268.026550,458.198273 266.304138,454.240814 
	C264.626709,450.386658 266.508026,446.480347 271.313354,444.107635 
z"/>
<path fill="#FCB03E" opacity="1.000000" stroke="none" 
	d="
M364.682007,446.501862 
	C367.448730,453.818237 365.522858,457.592194 359.569855,458.084412 
	C355.943024,458.384247 353.903412,456.754669 352.596558,453.840668 
	C351.528351,451.458679 351.497986,449.028595 353.549622,446.971313 
	C355.923065,444.591309 358.573212,443.133789 361.991699,444.568420 
	C362.882843,444.942474 363.644348,445.625366 364.682007,446.501862 
z"/>
<path fill="#FED279" opacity="1.000000" stroke="none" 
	d="
M211.905731,371.615051 
	C210.081329,369.567596 211.454758,366.812683 211.322845,363.820892 
	C212.414398,365.971588 211.688507,368.606201 211.905731,371.615051 
z"/>
<path fill="#FED279" opacity="1.000000" stroke="none" 
	d="
M211.206146,393.233032 
	C211.187927,392.217377 211.311966,391.285614 211.669281,390.086151 
	C211.887039,390.714386 211.871506,391.610321 211.763641,392.946350 
	C211.671310,393.386444 211.348419,393.316895 211.206146,393.233032 
z"/>
<path fill="#FBFEFE" opacity="1.000000" stroke="none" 
	d="
M532.000000,152.058182 
	C517.337341,152.057877 503.174652,152.077759 489.012177,152.032700 
	C487.142395,152.026749 484.313141,152.615341 484.508789,149.668716 
	C484.656586,147.443604 487.044037,146.983612 489.224243,146.985641 
	C518.049194,147.012512 546.874146,146.995590 575.699097,147.021454 
	C577.834473,147.023361 580.744629,146.961334 580.665222,149.766510 
	C580.578003,152.849808 577.496582,152.019348 575.487610,152.027390 
	C561.158630,152.084610 546.829224,152.058014 532.000000,152.058182 
z"/>
<path fill="#FCFEFE" opacity="1.000000" stroke="none" 
	d="
M495.060730,139.043381 
	C492.078430,139.033539 489.583679,139.056244 487.090668,138.999817 
	C485.867310,138.972122 484.659332,138.573669 484.444061,137.216034 
	C484.190277,135.615707 485.446136,134.733719 486.691254,134.347565 
	C487.921570,133.966019 489.309631,134.010391 490.628571,134.009583 
	C517.566345,133.993317 544.504150,133.992035 571.441956,134.013611 
	C572.753357,134.014664 574.120178,134.064209 575.360168,134.432007 
	C576.579041,134.793549 577.099060,135.914520 576.915649,137.223251 
	C576.752380,138.388519 575.979187,138.933136 574.864502,138.980118 
	C573.536255,139.036087 572.205139,139.040756 570.875305,139.040924 
	C545.766541,139.044098 520.657715,139.043304 495.060730,139.043381 
z"/>
<path fill="#FEFFFF" opacity="1.000000" stroke="none" 
	d="
M558.974976,182.990753 
	C536.169739,182.994034 513.859497,182.997375 491.549255,183.000580 
	C490.716766,183.000702 489.883698,182.978943 489.051941,183.003433 
	C486.885529,183.067215 484.506256,182.515884 484.511597,180.199570 
	C484.518188,177.333618 487.332397,178.007294 489.194489,178.004654 
	C515.167603,177.967728 541.140686,177.972031 567.113831,177.995392 
	C569.034607,177.997116 571.722229,177.504807 571.810852,180.313248 
	C571.912781,183.540741 569.022888,182.921646 566.961670,182.982635 
	C564.466553,183.056442 561.967407,182.994156 558.974976,182.990753 
z"/>
<path fill="#FCFEFE" opacity="1.000000" stroke="none" 
	d="
M488.488892,167.037354 
	C486.351776,166.972763 484.151917,166.932236 484.470978,164.697083 
	C484.795654,162.422806 487.005066,161.977646 489.184509,161.984406 
	C502.668579,162.026215 516.152832,162.016571 529.637024,162.023163 
	C531.801147,162.024216 533.968994,161.941544 536.128357,162.042084 
	C538.305786,162.143494 541.602051,161.117249 541.738281,164.429199 
	C541.882812,167.941132 538.502869,166.979294 536.376770,167.000977 
	C527.554688,167.090897 518.731079,167.038895 509.908081,167.038849 
	C502.916260,167.038803 495.924438,167.038574 488.488892,167.037354 
z"/>
<path fill="#085C63" opacity="1.000000" stroke="none" 
	d="
M296.595703,103.793381 
	C299.681915,91.944122 307.356873,85.549461 317.731720,85.860374 
	C327.108337,86.141373 335.151062,93.539406 337.059357,103.638817 
	C339.159790,114.754837 333.805573,125.854271 324.425232,129.829834 
	C311.642365,135.247452 297.278473,125.538925 296.165314,110.648361 
	C296.006165,108.519569 296.370697,106.351624 296.595703,103.793381 
z"/>
<path fill="#FDD474" opacity="1.000000" stroke="none" 
	d="
M216.404053,247.997574 
	C217.238342,246.483795 219.016220,247.024918 220.612823,247.023315 
	C244.747131,246.999268 268.881470,247.016083 293.477325,247.042648 
	C292.435333,248.646545 290.486969,247.962875 288.741119,247.966248 
	C264.787537,248.012436 240.833847,247.997513 216.404053,247.997574 
z"/>
<path fill="#F8FDFD" opacity="1.000000" stroke="none" 
	d="
M113.000122,183.995789 
	C126.162178,183.993744 138.824539,183.954178 151.486084,184.037643 
	C153.051498,184.047974 155.776718,183.010468 155.689255,185.893051 
	C155.614349,188.360794 153.127136,187.964294 151.339279,187.965927 
	C132.512817,187.983109 113.686325,187.996750 94.859901,187.971054 
	C93.135796,187.968704 90.527069,188.468857 90.600204,185.914642 
	C90.672249,183.398514 93.294632,184.033432 95.006744,184.014740 
	C100.837257,183.951111 106.668938,183.993744 113.000122,183.995789 
z"/>
<path fill="#FFFFFF" opacity="1.000000" stroke="none" 
	d="
M96.207993,195.935760 
	C112.011505,195.936035 127.341316,195.914078 142.670792,195.976288 
	C143.999191,195.981674 146.331741,195.166840 146.389969,197.198776 
	C146.456116,199.507263 144.024567,198.992737 142.480331,198.996689 
	C126.817451,199.036804 111.154335,199.047241 95.491638,198.981186 
	C94.005966,198.974930 91.374229,199.849304 91.364250,197.606262 
	C91.351997,194.853775 94.175934,196.371658 96.207993,195.935760 
z"/>
<path fill="#FFFFFF" opacity="1.000000" stroke="none" 
	d="
M126.957695,173.939545 
	C129.772583,173.945892 132.095810,173.931168 134.418213,173.968735 
	C135.403580,173.984665 136.601013,173.973633 136.748505,175.260208 
	C136.944641,176.971436 135.555374,176.988419 134.403519,176.995590 
	C128.762238,177.030701 123.120667,177.023956 117.479202,177.025772 
	C109.846535,177.028229 102.213707,177.049255 94.581360,176.999466 
	C93.362129,176.991531 91.455017,177.521576 91.313194,175.705719 
	C91.128334,173.338943 93.300446,173.982468 94.607796,173.975113 
	C105.226830,173.915329 115.846344,173.940399 126.957695,173.939545 
z"/>
<path fill="#EEFCFA" opacity="1.000000" stroke="none" 
	d="
M191.263840,96.090866 
	C192.816986,96.555298 194.002106,97.058693 193.426437,98.564171 
	C192.944595,99.824280 191.695312,99.986214 190.492630,99.986855 
	C185.345596,99.989601 180.198563,99.976814 175.051529,99.976372 
	C163.096985,99.975357 151.142349,100.000015 139.187958,99.956543 
	C137.347855,99.949852 134.491455,100.715965 134.560425,97.841751 
	C134.618149,95.435356 137.328949,96.065948 139.036987,96.062485 
	C156.304565,96.027382 173.572235,96.047585 191.263840,96.090866 
z"/>
<path fill="#F8FDFD" opacity="1.000000" stroke="none" 
	d="
M190.678009,117.874985 
	C189.762344,118.516533 188.991882,118.963959 188.220322,118.965874 
	C171.566284,119.007210 154.912094,119.000198 138.257950,118.997574 
	C136.757828,118.997337 134.615326,119.124306 134.590607,117.352448 
	C134.560165,115.169006 136.856995,115.976028 138.165604,115.971275 
	C154.486664,115.911942 170.808075,115.916641 187.129227,115.960876 
	C188.483139,115.964546 190.272141,115.328682 190.678009,117.874985 
z"/>
<path fill="#F8FDFD" opacity="1.000000" stroke="none" 
	d="
M145.038712,105.933388 
	C154.010712,105.933556 162.488831,105.890915 170.965530,105.980377 
	C172.233994,105.993767 174.458221,105.089935 174.469376,107.394089 
	C174.476685,108.906670 172.623642,108.988594 171.259659,108.988678 
	C160.122421,108.989403 148.985184,108.989876 137.847946,108.988342 
	C136.492981,108.988152 134.634186,108.963158 134.606781,107.438187 
	C134.564636,105.092606 136.789520,106.079315 138.064972,105.980301 
	C140.213043,105.813538 142.383377,105.933876 145.038712,105.933388 
z"/>
<path fill="#16494C" opacity="1.000000" stroke="none" 
	d="
M384.701782,339.063171 
	C385.115265,352.433929 385.330627,365.747009 385.147034,379.054596 
	C385.014709,388.641083 377.910980,395.877289 368.308502,395.921631 
	C333.362701,396.082947 298.415253,396.076294 263.469360,395.921539 
	C254.134842,395.880157 247.073059,388.329224 246.961884,378.711426 
	C246.813812,365.899719 246.943130,353.084778 247.003174,339.757111 
	C250.535049,338.482178 252.157059,340.980133 253.912308,343.194122 
	C256.740631,346.761505 258.034576,351.173126 260.366119,355.019958 
	C265.895630,364.143158 273.748840,364.190155 279.394257,355.092651 
	C281.506439,351.688904 282.936401,347.914825 285.018005,344.501556 
	C289.660126,336.889679 296.294769,336.880157 301.005249,344.486603 
	C303.372528,348.309296 304.879120,352.611908 307.435333,356.340332 
	C312.568359,363.827332 320.304138,363.626129 325.072998,355.813995 
	C327.328918,352.118378 328.836792,348.006714 331.244080,344.385620 
	C336.250519,336.854767 342.449066,336.954071 347.132507,344.697418 
	C349.287689,348.260651 350.723907,352.220154 353.022797,355.710052 
	C358.279175,363.689819 365.529602,363.808685 371.088379,356.018280 
	C373.619812,352.470612 375.213593,348.407654 377.337158,344.636963 
	C378.903503,341.855682 380.556671,339.084442 384.701782,339.063171 
z"/>
<path fill="#174A4C" opacity="1.000000" stroke="none" 
	d="
M247.383942,335.918640 
	C247.009964,330.933167 246.828506,326.102875 246.954544,321.280640 
	C247.203522,311.754883 254.178253,304.240143 263.654572,304.187012 
	C298.452118,303.991730 333.251953,303.993896 368.049622,304.174622 
	C378.094757,304.226776 384.983704,311.694580 385.207428,321.850555 
	C385.302734,326.176910 385.197174,330.507660 385.127686,335.357300 
	C379.534882,337.893463 376.251251,342.111816 373.740173,347.202454 
	C372.054565,350.619690 370.713806,354.265686 368.037201,357.117279 
	C364.207489,361.197327 359.621368,361.063812 356.085083,356.702881 
	C353.759094,353.834442 352.303558,350.440613 350.710754,347.148865 
	C349.240814,344.110992 347.406738,341.376495 344.828186,339.176514 
	C340.680084,335.637451 336.869843,335.740631 332.845154,339.483185 
	C329.444641,342.645294 327.964813,346.979401 325.906250,350.947144 
	C323.724274,355.152710 321.624146,359.699646 316.149017,359.856384 
	C310.401794,360.020935 308.679199,355.095367 306.593689,350.939392 
	C304.500336,346.767700 302.480835,342.543610 298.966309,339.323822 
	C294.953857,335.647858 291.039154,335.696564 286.991974,339.336212 
	C284.574951,341.509857 283.190552,344.350708 281.774567,347.183075 
	C280.212036,350.308655 278.753387,353.506714 276.546143,356.249176 
	C272.397186,361.404236 267.278473,361.328583 263.289124,356.094055 
	C261.361298,353.564545 259.801056,350.791626 258.589294,347.875854 
	C256.389252,342.581940 252.997910,338.483246 247.383942,335.918640 
z"/>
<path fill="#9FDCD8" opacity="1.000000" stroke="none" 
	d="
M246.970306,336.042664 
	C251.847702,335.739136 254.642441,338.784119 256.815643,342.454742 
	C259.349152,346.733856 261.329346,351.356201 264.034637,355.514008 
	C267.467590,360.790222 272.544861,360.643890 275.966949,355.252197 
	C278.447021,351.344757 280.449615,347.134613 282.670959,343.062622 
	C287.862640,333.545715 296.673218,333.000275 302.550385,341.979492 
	C304.817719,345.443634 306.592499,349.232971 308.548676,352.897125 
	C310.232513,356.051147 312.058563,359.177948 316.180634,359.093018 
	C320.250305,359.009216 322.128143,355.891113 323.810547,352.740295 
	C325.763794,349.082306 327.453979,345.258942 329.678680,341.775818 
	C334.837311,333.699036 342.487000,333.410370 348.222748,341.131683 
	C350.280518,343.901764 351.549744,347.249908 353.258514,350.289429 
	C354.478790,352.460022 355.598450,354.750671 357.176788,356.642517 
	C360.029480,360.061920 363.945282,360.009521 367.076141,356.768219 
	C370.129730,353.606903 371.385986,349.392059 373.498566,345.677246 
	C376.036560,341.214478 378.307922,336.358002 384.732941,335.811066 
	C385.110779,336.783020 385.149078,337.687866 385.129028,338.857971 
	C381.465729,340.160065 379.261597,342.656799 377.656464,345.932251 
	C375.845917,349.626953 374.099030,353.394531 371.864868,356.831665 
	C366.423706,365.202545 358.226776,365.185699 352.696320,356.823517 
	C350.691864,353.792725 349.272308,350.380676 347.471100,347.207764 
	C346.412415,345.342743 345.352448,343.394135 343.899445,341.854553 
	C340.654724,338.416534 337.261810,338.577118 334.078766,342.090271 
	C331.588318,344.838989 330.299591,348.308319 328.568634,351.514832 
	C327.232269,353.990417 326.032288,356.622681 324.263702,358.766113 
	C319.288300,364.796112 311.906189,364.555573 307.525085,358.099976 
	C304.743744,354.001648 302.750885,349.377533 300.156738,345.140900 
	C295.299835,337.208862 289.849609,337.460999 285.487823,345.674622 
	C283.393372,349.618713 281.704163,353.763489 279.129913,357.471100 
	C273.987122,364.878052 265.860352,365.094086 260.819733,357.557098 
	C258.164062,353.586243 256.159668,349.177368 253.896469,344.947418 
	C252.516846,342.368866 250.730835,340.275635 247.427933,339.332886 
	C246.998108,338.270508 246.943161,337.298035 246.970306,336.042664 
z"/>
<path fill="#E56138" opacity="1.000000" stroke="none" 
	d="
M368.007874,420.962158 
	C368.056885,427.571014 363.350494,424.715302 360.754059,424.878784 
	C356.520386,425.145416 358.374207,421.470703 358.077026,419.368958 
	C357.556030,415.684875 360.242828,416.113251 362.592499,416.019379 
	C365.816193,415.890533 368.818939,415.846863 368.007874,420.962158 
z"/>
<path fill="#E56138" opacity="1.000000" stroke="none" 
	d="
M263.180237,417.396545 
	C270.592438,414.587433 272.911102,415.755066 273.006958,421.353210 
	C273.073853,425.260468 270.815033,425.121582 268.175964,425.046936 
	C265.569214,424.973236 262.482849,425.707123 262.976562,421.311584 
	C263.105988,420.159332 263.037842,418.984924 263.180237,417.396545 
z"/>
<path fill="#E56138" opacity="1.000000" stroke="none" 
	d="
M344.001648,419.169067 
	C343.906677,424.525238 340.119843,426.874115 335.551849,424.863525 
	C334.073792,424.212982 333.425171,418.775757 334.634918,417.176910 
	C336.371826,414.881348 342.542877,415.898041 344.001648,419.169067 
z"/>
<path fill="#E56138" opacity="1.000000" stroke="none" 
	d="
M284.727356,423.675293 
	C282.388824,425.867859 279.812378,424.785675 277.404327,424.978210 
	C275.330688,425.144043 274.817261,423.692322 275.036896,422.042328 
	C275.299744,420.067780 273.810211,417.506927 276.441101,416.249878 
	C281.034637,414.055023 284.894623,416.626526 284.918854,421.757080 
	C284.921204,422.255585 284.875031,422.754272 284.727356,423.675293 
z"/>
<path fill="#E56138" opacity="1.000000" stroke="none" 
	d="
M296.919678,421.929626 
	C296.555054,426.622406 293.261169,424.672699 291.156494,424.961121 
	C289.822632,425.143921 287.800201,425.657410 287.288239,423.756470 
	C286.690582,421.537140 286.146332,418.719513 287.538422,416.997803 
	C289.215057,414.924133 292.255951,415.914917 294.615875,416.244049 
	C297.709869,416.675537 296.723083,419.467041 296.919678,421.929626 
z"/>
<path fill="#E56138" opacity="1.000000" stroke="none" 
	d="
M328.843201,425.027710 
	C324.700623,425.282471 321.157379,425.557983 322.006348,419.911194 
	C322.348267,417.637115 322.796783,415.798401 325.427124,416.124268 
	C327.648285,416.399475 331.152710,414.485718 331.745575,417.901154 
	C332.129272,420.111572 334.329895,424.178650 328.843201,425.027710 
z"/>
<path fill="#E56138" opacity="1.000000" stroke="none" 
	d="
M348.322021,424.993958 
	C344.583008,422.752136 345.487946,419.282074 346.943268,417.206207 
	C348.660645,414.756439 352.441376,415.482178 354.820648,416.500641 
	C357.272339,417.550110 355.753326,420.673065 355.922546,422.877502 
	C356.058380,424.646362 354.733856,425.026917 353.257385,425.022736 
	C351.759735,425.018524 350.262085,425.022156 348.322021,424.993958 
z"/>
<path fill="#E56138" opacity="1.000000" stroke="none" 
	d="
M373.879852,425.032715 
	C368.398376,425.272949 370.404968,421.447418 370.067291,419.056061 
	C369.713898,416.553223 371.241180,415.926025 373.412628,416.030792 
	C376.312195,416.170715 379.309174,416.280548 379.934692,419.941345 
	C380.396240,422.642639 379.027985,424.397186 376.300659,424.941925 
	C375.657806,425.070343 374.976837,425.007965 373.879852,425.032715 
z"/>
<path fill="#E35B38" opacity="1.000000" stroke="none" 
	d="
M311.636383,416.647583 
	C313.287262,416.250763 314.620605,416.229156 315.931244,416.045654 
	C319.891785,415.491150 320.020874,417.862061 320.120972,420.880280 
	C320.232574,424.244507 318.956696,425.177643 315.759369,425.108551 
	C312.714203,425.042786 310.389252,424.835541 310.953247,420.902832 
	C311.140839,419.594727 311.193909,418.267365 311.636383,416.647583 
z"/>
<path fill="#E35B38" opacity="1.000000" stroke="none" 
	d="
M307.994324,422.766846 
	C305.848785,426.631836 302.256622,425.460388 300.079346,424.476807 
	C297.730621,423.415802 298.656921,419.844940 299.250122,417.627686 
	C300.017181,414.760254 302.919128,416.392029 304.876038,416.110901 
	C306.427460,415.888031 307.959198,416.180023 307.991547,418.320129 
	C308.011627,419.651855 308.013489,420.983826 307.994324,422.766846 
z"/>
<path fill="#E56138" opacity="1.000000" stroke="none" 
	d="
M253.574982,417.439514 
	C259.438507,415.067108 260.885834,415.497589 260.897064,419.523987 
	C260.902039,421.311157 262.084076,423.866516 259.566956,424.750000 
	C257.614716,425.435242 255.284622,425.545288 253.478195,423.896332 
	C251.326675,421.932343 251.775497,419.824127 253.574982,417.439514 
z"/>
<path fill="#FDCF3B" opacity="1.000000" stroke="none" 
	d="
M327.412842,449.465576 
	C329.931152,447.045502 331.844940,447.997314 333.404663,450.098572 
	C334.520355,451.601715 333.652832,452.858337 332.495178,453.971405 
	C331.482910,454.944611 330.505615,454.721863 329.356079,454.185364 
	C327.399231,453.272064 326.690613,451.865570 327.412842,449.465576 
z"/>
<path fill="#FDCF3B" opacity="1.000000" stroke="none" 
	d="
M304.943726,450.938049 
	C304.434662,453.468292 303.313934,455.151764 300.884399,454.717010 
	C299.401855,454.451660 298.190491,453.204315 298.163300,451.528992 
	C298.135895,449.838043 299.356995,448.722290 300.820892,448.266205 
	C302.819855,447.643341 304.459534,448.187531 304.943726,450.938049 
z"/>
<path fill="#FDCF3B" opacity="1.000000" stroke="none" 
	d="
M271.464722,454.616547 
	C269.659302,453.221863 268.257111,451.951782 269.762115,449.864197 
	C270.830536,448.382263 272.272278,447.653809 274.099121,448.225830 
	C275.341644,448.614929 276.027100,449.607056 275.922577,450.891907 
	C275.721191,453.366760 274.527863,454.920837 271.464722,454.616547 
z"/>
<path fill="#FDCF3B" opacity="1.000000" stroke="none" 
	d="
M361.653137,453.783630 
	C359.667023,455.305878 357.859009,455.527191 356.577484,453.686279 
	C355.593658,452.272888 355.591949,450.448059 356.772339,449.023499 
	C357.893372,447.670563 359.483612,447.684479 360.837433,448.583099 
	C362.675781,449.803406 363.805328,451.379700 361.653137,453.783630 
z"/>
<path fill="#689F94" opacity="1.000000" stroke="none" 
	d="
M304.577301,101.923447 
	C309.142609,94.725189 313.170868,92.740494 320.074432,94.025513 
	C324.425385,94.835403 328.874084,99.490631 329.930023,104.338669 
	C331.400208,111.088486 329.085236,117.784363 324.064697,121.303795 
	C320.545319,123.770920 313.888184,123.940964 310.267456,121.656219 
	C305.380859,118.572701 302.311707,112.023155 303.290100,106.617622 
	C303.555878,105.149246 304.028656,103.718338 304.577301,101.923447 
z"/>
</svg>