<?xml version="1.0" standalone="no"?>
<!DOCTYPE svg PUBLIC "-//W3C//DTD SVG 20010904//EN"
 "http://www.w3.org/TR/2001/REC-SVG-20010904/DTD/svg10.dtd">
<svg version="1.0" xmlns="http://www.w3.org/2000/svg"
 width="59.000000pt" height="51.000000pt" viewBox="0 0 59.000000 51.000000"
 preserveAspectRatio="xMidYMid meet">

<g transform="translate(0.000000,51.000000) scale(0.100000,-0.100000)"
fill="#684fff" stroke="none">
<path d="M114 470 c-12 -4 -31 -21 -44 -37 -30 -38 -22 -92 20 -145 24 -29 29
-43 21 -51 -6 -6 -11 -19 -11 -29 0 -21 30 -24 48 -6 9 9 20 4 50 -25 69 -67
101 -36 36 35 l-36 40 27 28 27 29 26 -30 c18 -23 22 -33 13 -42 -33 -33 4
-63 40 -32 15 15 19 13 49 -25 30 -38 62 -51 75 -30 4 6 -12 31 -34 57 l-40
48 23 25 c48 51 58 98 31 149 -26 52 -120 66 -166 25 -17 -15 -20 -15 -45 5
-28 22 -73 26 -110 11z m88 -57 c26 -24 22 -58 -12 -95 l-30 -33 -30 33 c-16
18 -30 42 -30 54 0 50 64 76 102 41z m182 1 c24 -24 19 -60 -14 -96 l-30 -33
-30 35 c-17 19 -30 43 -30 54 0 48 70 75 104 40z"/>
<path d="M50 160 c0 -23 35 -28 43 -6 7 18 -1 26 -25 26 -11 0 -18 -7 -18 -20z"/>
</g>
</svg>
