<svg width="300" height="115" viewBox="0 0 300 115" fill="none" xmlns="http://www.w3.org/2000/svg">
<path d="M59.6558 30.9447C56.9187 27.9531 53.5938 25.5551 49.8881 23.9001C45.986 22.1631 41.754 21.2872 37.4813 21.332C34.8297 21.3 32.1864 21.6341 29.6264 22.3245C27.4489 22.9211 25.3454 23.7601 23.3559 24.8257C21.6388 25.7394 20.0609 26.8923 18.6698 28.2499C17.5058 29.3876 16.4661 30.6452 15.5681 32.0017H15.1726V23.1806H0V114.479H15.8392V77.9537H16.1054C18.1284 81.1149 21.0104 83.6169 24.7513 85.4597C28.4922 87.3026 32.6062 88.2246 37.0933 88.2263C41.9303 88.2263 46.264 87.3264 50.0945 85.5266C53.8114 83.8077 57.1337 81.3439 59.8547 78.2886C62.5931 75.1645 64.6997 71.5413 66.0581 67.6188C67.5325 63.4087 68.2696 58.9769 68.237 54.5174C68.2743 50.0735 67.5162 45.6586 65.9984 41.4805C64.5891 37.5914 62.4349 34.0131 59.6558 30.9447ZM51.0099 61.8895C50.3009 64.2706 49.1603 66.5019 47.6445 68.4725C46.1109 70.4367 44.176 72.0529 41.9685 73.2142C39.6801 74.4433 36.9963 75.058 33.9171 75.058C31.0119 75.058 28.4159 74.4647 26.1293 73.2787C23.8787 72.1258 21.8813 70.5365 20.2542 68.6039C18.6278 66.6793 17.3745 64.4698 16.5581 62.0879C15.7368 59.7378 15.3164 57.2668 15.3144 54.7779C15.3202 52.2683 15.7403 49.7768 16.5581 47.4035C17.3648 44.997 18.6187 42.7637 20.2542 40.8204C21.8917 38.8814 23.8859 37.2728 26.1293 36.0812C28.4159 34.8504 31.0119 34.2357 33.9171 34.2374C36.9963 34.2374 39.6801 34.8296 41.9685 36.014C44.1811 37.1384 46.1189 38.7343 47.6445 40.6888C49.1508 42.6417 50.2909 44.8501 51.0099 47.2074C51.7506 49.573 52.1288 52.0367 52.1317 54.515C52.1259 57.015 51.7479 59.5003 51.0099 61.8895ZM260.996 30.9447C258.26 27.9534 254.936 25.5554 251.231 23.9001C247.328 22.1633 243.095 21.2874 238.822 21.332C236.17 21.3 233.527 21.6341 230.967 22.3245C228.79 22.9215 226.686 23.7605 224.697 24.8257C222.98 25.7387 221.403 26.8918 220.013 28.2499C218.848 29.3869 217.807 30.6447 216.909 32.0017H216.513V23.1806H201.341V114.479H217.182V77.9537H217.446C219.469 81.1149 222.351 83.6169 226.092 85.4597C229.833 87.3026 233.947 88.2246 238.434 88.2263C243.273 88.2263 247.606 87.3264 251.435 85.5266C255.155 83.8071 258.48 81.3417 261.203 78.2837C263.942 75.1603 266.049 71.5369 267.406 67.614C268.881 63.4039 269.618 58.9719 269.585 54.5123C269.622 50.0684 268.864 45.6536 267.347 41.4754C265.934 37.5875 263.778 34.011 260.996 30.9447ZM252.353 61.8895C251.643 64.2707 250.502 66.502 248.985 68.4725C247.452 70.4367 245.517 72.0529 243.309 73.2142C241.021 74.4433 238.337 75.058 235.258 75.058C232.354 75.058 229.758 74.4647 227.47 73.2787C225.22 72.1251 223.223 70.5359 221.595 68.6039C219.968 66.6798 218.716 64.4701 217.901 62.0879C217.079 59.738 216.658 57.2669 216.658 54.7779C216.662 52.2682 217.082 49.7765 217.901 47.4035C218.706 44.9967 219.959 42.7632 221.595 40.8204C223.233 38.882 225.227 37.2735 227.47 36.0812C229.755 34.8504 232.351 34.2357 235.258 34.2374C238.337 34.2374 241.021 34.8296 243.309 36.014C245.522 37.1384 247.46 38.7343 248.985 40.6888C250.492 42.6415 251.633 44.85 252.353 47.2074C253.092 49.5734 253.469 52.0369 253.472 54.515C253.466 57.0148 253.089 59.4999 252.353 61.8895ZM179.338 23.1806H195.839L167.207 97.3105C166.178 99.9666 164.942 102.538 163.511 105.003C162.266 107.15 160.658 109.066 158.758 110.665C156.831 112.244 154.611 113.429 152.226 114.154C150.966 114.542 149.675 114.825 148.368 115L143.349 102.387H143.374C148.214 101.072 149.388 99.2137 149.388 99.2137C150.24 98.2905 150.951 97.2481 151.5 96.1196C152.113 94.8888 152.777 93.4396 153.49 91.7721L155.338 86.3752L131.387 30.7065L105.659 97.303C104.627 99.9582 103.391 102.53 101.962 104.995C100.718 107.142 99.1095 109.058 97.2093 110.658C95.2812 112.236 93.0611 113.421 90.6751 114.146C89.4156 114.534 88.1261 114.817 86.8197 114.992L81.8003 102.38H81.8252C86.6655 101.065 87.837 99.2062 87.837 99.2062C88.6892 98.2836 89.4007 97.2411 89.9487 96.112C90.5656 94.8813 91.2289 93.4321 91.9386 91.7646L93.7842 86.3677L66.5929 23.1608H84.1309L101.821 69.1176H102.084L117.792 23.1608H145.692L163.379 69.1176H163.643L179.338 23.1806ZM300 79.1372L293.513 92.0774H292.247C285.283 92.0774 277.691 85.2834 277.691 73.6509L277.671 73.2193V0H293.513V64.2094C293.513 73.4276 293.62 75.6212 300 79.1323V79.1372Z" fill="#797979"/>
</svg>
