<svg width="300" height="300" viewBox="0 0 300 300" fill="none" xmlns="http://www.w3.org/2000/svg">
<path d="M288.209 91.6088C280.68 73.7865 269.763 57.5947 256.063 43.9319C242.402 30.2336 226.21 19.3179 208.388 11.7903C189.915 3.97148 170.055 -0.0386103 149.996 0.000284815C129.937 -0.0389274 110.076 3.97118 91.6036 11.7903C73.7807 19.3185 57.5885 30.2341 43.925 43.9319C30.2299 57.5956 19.3167 73.7873 11.7908 91.6088C3.97133 110.08 -0.0389277 129.94 0.000285973 149.999C-0.039007 170.057 3.97125 189.917 11.7908 208.388C19.3186 226.211 30.2348 242.403 43.9337 256.065C57.5971 269.764 73.7893 280.68 91.6123 288.21C110.085 296.027 129.945 300.038 150.004 300C170.063 300.037 189.924 296.027 208.396 288.21C226.219 280.681 242.41 269.765 256.072 256.065C269.769 242.402 280.683 226.21 288.209 208.388C296.027 189.917 300.037 170.059 300 150.001C300.038 129.942 296.028 110.082 288.209 91.6088ZM244.827 244.824C219.5 270.154 185.82 284.095 149.999 284.095C114.177 284.095 80.4976 270.145 55.1668 244.824C29.8359 219.503 15.8942 185.819 15.8942 149.999C15.8942 114.178 29.8446 80.5002 55.1668 55.1703C80.4889 29.8404 114.177 15.8992 149.999 15.8992C185.82 15.8992 219.5 29.8491 244.827 55.1703C270.155 80.4915 284.1 114.178 284.1 149.999C284.1 185.819 270.155 219.494 244.827 244.824ZM216.906 191.981L202.165 177.254L224.559 154.861L224.59 154.832L226.17 153.233C226.251 153.152 226.332 153.068 226.41 152.981C234.588 143.977 239.02 132.19 238.798 120.028C238.598 107.591 233.537 95.7262 224.697 86.9743C215.919 78.1612 204.04 73.1343 191.602 72.9695C185.254 72.8613 178.949 74.0253 173.058 76.3929C167.168 78.7605 161.811 82.2836 157.304 86.7546C154.591 89.4246 152.205 92.4073 150.195 95.6399C148.183 92.4086 145.797 89.4261 143.085 86.7546C138.579 82.2822 133.222 78.7575 127.331 76.3884C121.44 74.0193 115.134 72.854 108.785 72.9608C96.3475 73.1267 84.4685 78.1535 75.6896 86.9656C66.848 95.7196 61.7864 107.588 61.589 120.028C61.3642 132.196 65.798 143.99 73.983 152.996C74.061 153.083 74.1389 153.166 74.2197 153.247L75.8022 154.847C75.8111 154.857 75.8208 154.867 75.8311 154.876L98.2252 177.269L58.5453 216.947C57.0548 218.438 56.2174 220.46 56.2174 222.568C56.2174 224.676 57.0548 226.698 58.5453 228.189C59.2826 228.927 60.1586 229.513 61.123 229.913C62.0873 230.312 63.1211 230.517 64.1649 230.516C65.2086 230.517 66.2423 230.312 67.2067 229.913C68.171 229.513 69.047 228.927 69.7843 228.189L109.464 188.507L138.139 217.181L150.195 229.52L158.717 220.712L190.923 188.507L194.761 192.345L230.603 228.189C231.34 228.927 232.216 229.513 233.18 229.912C234.145 230.312 235.178 230.517 236.222 230.516C237.266 230.517 238.3 230.312 239.264 229.913C240.229 229.514 241.104 228.928 241.842 228.189C243.332 226.698 244.17 224.676 244.17 222.568C244.17 220.46 243.332 218.438 241.842 216.947L216.906 191.981ZM168.468 98.0424C171.482 95.0584 175.062 92.7065 178.997 91.1252C182.933 89.5439 187.144 88.7647 191.385 88.8337C208.48 89.0705 222.624 103.171 222.91 120.265C223.059 128.338 220.141 136.166 214.744 142.17L213.3 143.614L190.92 165.993L167.079 142.153C160.839 135.223 158.933 130.201 158.933 120.808C158.924 116.572 159.763 112.377 161.4 108.469C163.037 104.562 165.44 101.022 168.465 98.0568L168.468 98.0424ZM87.0873 143.623L85.6435 142.179C80.2435 136.176 77.3247 128.346 77.4771 120.274C77.7658 103.179 91.9155 89.0879 109.002 88.8425C113.243 88.7736 117.454 89.5526 121.39 91.1339C125.325 92.7153 128.905 95.067 131.919 98.0509C134.947 101.019 137.35 104.563 138.987 108.474C140.623 112.386 141.46 116.585 141.448 120.825C141.448 130.219 139.542 135.234 133.302 142.17L109.461 166.01L87.0873 143.623ZM150.198 206.731L120.706 177.24L144.691 153.259C144.783 153.163 144.876 153.068 144.98 152.97C146.873 150.901 148.621 148.704 150.212 146.395C151.803 148.704 153.551 150.902 155.445 152.97C155.534 153.068 155.624 153.163 155.734 153.259L178.258 175.782L179.701 177.226L150.198 206.731Z" fill="#6F46EA"/>
</svg>
