<svg version="1.1" id="Layer_1" xmlns="http://www.w3.org/2000/svg" xmlns:xlink="http://www.w3.org/1999/xlink" x="0px" y="0px"
	 width="100%" viewBox="0 0 125 142" enable-background="new 0 0 125 142" xml:space="preserve">
<path fill="#FFFEFA" opacity="1.000000" stroke="none" 
	d="
M62.000000,143.000000 
	C41.352230,143.000000 21.204464,143.000000 1.028347,143.000000 
	C1.028347,95.729935 1.028347,48.459850 1.028347,1.094882 
	C42.564175,1.094882 84.128639,1.094882 125.846550,1.094882 
	C125.846550,48.332943 125.846550,95.666420 125.846550,143.000000 
	C104.793625,143.000000 83.646812,143.000000 62.000000,143.000000 
M38.811207,132.722794 
	C49.198456,137.590225 60.199989,139.569061 71.449699,137.787277 
	C95.829926,133.925827 112.852219,120.292908 120.199249,96.660728 
	C127.203171,74.132217 122.108070,53.460751 105.107460,36.932095 
	C87.857811,20.161308 67.098221,15.906923 44.120987,23.341503 
	C37.684166,25.424217 37.718044,25.528925 35.031677,18.401859 
	C36.800812,17.356415 38.659031,16.309269 40.465992,15.180095 
	C44.414928,12.712394 45.582481,9.325124 43.696648,5.959987 
	C41.871536,2.703199 38.190777,1.797654 34.107548,4.046360 
	C26.959137,7.983115 19.892838,12.076618 12.895257,16.276272 
	C9.547790,18.285280 8.648064,21.464922 10.493068,24.904543 
	C12.399381,28.458464 15.640456,28.897564 19.102320,27.392000 
	C21.343929,26.417124 23.427164,25.078081 25.496761,23.948399 
	C30.582577,29.601257 30.582577,29.601257 25.399609,34.172020 
	C-7.002937,62.747208 -0.411114,113.527275 38.811207,132.722794 
z"/>
<path fill="#FFC20C" opacity="1.000000" stroke="none" 
	d="
M38.479073,132.546906 
	C-0.411114,113.527275 -7.002937,62.747208 25.399609,34.172020 
	C30.582577,29.601257 30.582577,29.601257 25.496761,23.948399 
	C23.427164,25.078081 21.343929,26.417124 19.102320,27.392000 
	C15.640456,28.897564 12.399381,28.458464 10.493068,24.904543 
	C8.648064,21.464922 9.547790,18.285280 12.895257,16.276272 
	C19.892838,12.076618 26.959137,7.983115 34.107548,4.046360 
	C38.190777,1.797654 41.871536,2.703199 43.696648,5.959987 
	C45.582481,9.325124 44.414928,12.712394 40.465992,15.180095 
	C38.659031,16.309269 36.800812,17.356415 35.031677,18.401859 
	C37.718044,25.528925 37.684166,25.424217 44.120987,23.341503 
	C67.098221,15.906923 87.857811,20.161308 105.107460,36.932095 
	C122.108070,53.460751 127.203171,74.132217 120.199249,96.660728 
	C112.852219,120.292908 95.829926,133.925827 71.449699,137.787277 
	C60.199989,139.569061 49.198456,137.590225 38.479073,132.546906 
M97.280121,115.793945 
	C108.098679,105.493134 113.570663,92.968788 113.323524,77.936127 
	C112.888077,51.449490 90.955437,29.695747 64.193016,29.341074 
	C37.716255,28.990183 14.471203,51.227909 14.256400,77.692970 
	C14.088865,98.334221 23.190973,114.194679 41.785194,123.305145 
	C61.285305,132.859467 79.883301,130.068115 97.280121,115.793945 
z"/>
<path fill="#FEF8E6" opacity="1.000000" stroke="none" 
	d="
M96.998932,116.012772 
	C79.883301,130.068115 61.285305,132.859467 41.785194,123.305145 
	C23.190973,114.194679 14.088865,98.334221 14.256400,77.692970 
	C14.471203,51.227909 37.716255,28.990183 64.193016,29.341074 
	C90.955437,29.695747 112.888077,51.449490 113.323524,77.936127 
	C113.570663,92.968788 108.098679,105.493134 96.998932,116.012772 
M94.994293,45.483665 
	C86.624199,37.275997 76.257904,33.370819 64.852982,33.147926 
	C50.697784,32.871277 38.828850,38.415031 29.254217,49.140892 
	C13.537708,66.747108 13.685441,95.662560 32.679966,112.907288 
	C45.161655,124.239151 60.053490,127.680359 76.710098,123.106834 
	C96.792313,117.592705 110.107132,98.125160 109.810204,78.363388 
	C109.622223,65.852829 104.899628,54.736572 94.994293,45.483665 
z"/>
<path fill="#F6EAC6" opacity="1.000000" stroke="none" 
	d="
M95.248383,45.737495 
	C104.899628,54.736572 109.622223,65.852829 109.810204,78.363388 
	C110.107132,98.125160 96.792313,117.592705 76.710098,123.106834 
	C60.053490,127.680359 45.161655,124.239151 32.679966,112.907288 
	C13.685441,95.662560 13.537708,66.747108 29.254217,49.140892 
	C38.828850,38.415031 50.697784,32.871277 64.852982,33.147926 
	C76.257904,33.370819 86.624199,37.275997 95.248383,45.737495 
M61.212635,72.194038 
	C57.883553,73.771767 55.541553,76.531975 56.648918,80.013931 
	C57.426250,82.458145 59.877270,85.168571 62.225849,86.059013 
	C64.065948,86.756676 67.910728,85.544075 69.028320,83.917969 
	C70.434891,81.871376 70.772858,78.334106 70.126915,75.809784 
	C69.149727,71.990990 65.561501,71.512024 61.212635,72.194038 
M36.379650,92.932037 
	C34.665340,93.900246 32.883736,94.772011 31.276367,95.893501 
	C30.772299,96.245201 30.528021,97.282799 30.574411,97.979164 
	C30.598026,98.333656 31.501377,98.835693 32.056629,98.912453 
	C34.305264,99.223351 42.343971,93.588509 44.212276,89.336464 
	C41.024670,90.763962 39.022499,91.660591 36.379650,92.932037 
M82.357094,112.446022 
	C84.075928,109.143501 80.223038,101.419212 75.857437,99.415474 
	C75.006714,102.811646 76.893867,107.015968 82.357094,112.446022 
M73.943581,48.511261 
	C74.222435,46.464474 74.501289,44.417686 74.937042,41.219219 
	C69.976471,45.083591 68.207825,52.422024 70.865974,57.746727 
	C72.067993,54.278873 72.930420,51.790730 73.943581,48.511261 
M87.546860,87.133568 
	C91.865120,88.381081 96.097313,90.392952 100.909698,88.414124 
	C96.668480,86.336830 92.201363,85.220200 87.704544,84.239799 
	C87.629211,84.223381 87.193199,85.861237 87.546860,87.133568 
M55.308319,103.890648 
	C54.459263,107.793365 53.610207,111.696083 52.761150,115.598793 
	C53.699654,115.815735 54.638153,116.032669 55.576653,116.249611 
	C56.659294,112.025467 57.741932,107.801323 58.824574,103.577179 
	C57.770733,103.448212 56.716888,103.319237 55.308319,103.890648 
M84.153244,66.610725 
	C85.066452,66.998550 86.278343,67.968147 86.843468,67.678001 
	C90.053452,66.029976 93.155876,64.152351 96.172913,62.167427 
	C96.707069,61.816006 96.666214,60.590565 96.890884,59.768730 
	C96.562073,59.384727 96.233261,59.000725 95.904449,58.616722 
	C92.023026,61.042225 88.141609,63.467728 84.153244,66.610725 
M51.392689,54.122131 
	C49.532703,51.200890 48.717903,47.342606 44.422657,46.486931 
	C45.764965,51.363358 47.591763,55.857800 51.281601,59.199589 
	C51.815624,58.958141 52.349644,58.716694 52.883663,58.475246 
	C52.509262,57.239815 52.134857,56.004383 51.392689,54.122131 
M32.816765,72.725060 
	C35.472004,73.152023 38.127243,73.578987 40.782486,74.005951 
	C37.831524,69.476402 30.467140,67.661942 25.959955,69.878357 
	C28.460518,70.985603 30.238638,71.772957 32.816765,72.725060 
z"/>
<path fill="#FEC10B" opacity="1.000000" stroke="none" 
	d="
M61.607052,72.101517 
	C65.561501,71.512024 69.149727,71.990990 70.126915,75.809784 
	C70.772858,78.334106 70.434891,81.871376 69.028320,83.917969 
	C67.910728,85.544075 64.065948,86.756676 62.225849,86.059013 
	C59.877270,85.168571 57.426250,82.458145 56.648918,80.013931 
	C55.541553,76.531975 57.883553,73.771767 61.607052,72.101517 
z"/>
<path fill="#FDC92D" opacity="1.000000" stroke="none" 
	d="
M36.699989,92.744629 
	C39.022499,91.660591 41.024670,90.763962 44.212276,89.336464 
	C42.343971,93.588509 34.305264,99.223351 32.056629,98.912453 
	C31.501377,98.835693 30.598026,98.333656 30.574411,97.979164 
	C30.528021,97.282799 30.772299,96.245201 31.276367,95.893501 
	C32.883736,94.772011 34.665340,93.900246 36.699989,92.744629 
z"/>
<path fill="#FDC92E" opacity="1.000000" stroke="none" 
	d="
M82.027786,112.437263 
	C76.893867,107.015968 75.006714,102.811646 75.857437,99.415474 
	C80.223038,101.419212 84.075928,109.143501 82.027786,112.437263 
z"/>
<path fill="#FDC82C" opacity="1.000000" stroke="none" 
	d="
M73.868217,48.906925 
	C72.930420,51.790730 72.067993,54.278873 70.865974,57.746727 
	C68.207825,52.422024 69.976471,45.083591 74.937042,41.219219 
	C74.501289,44.417686 74.222435,46.464474 73.868217,48.906925 
z"/>
<path fill="#FDC828" opacity="1.000000" stroke="none" 
	d="
M87.236176,86.930359 
	C87.193199,85.861237 87.629211,84.223381 87.704544,84.239799 
	C92.201363,85.220200 96.668480,86.336830 100.909698,88.414124 
	C96.097313,90.392952 91.865120,88.381081 87.236176,86.930359 
z"/>
<path fill="#FDC92E" opacity="1.000000" stroke="none" 
	d="
M55.485683,103.540459 
	C56.716888,103.319237 57.770733,103.448212 58.824570,103.577179 
	C57.741932,107.801323 56.659294,112.025467 55.576653,116.249611 
	C54.638153,116.032669 53.699654,115.815735 52.761150,115.598793 
	C53.610207,111.696083 54.459263,107.793365 55.485683,103.540459 
z"/>
<path fill="#FDC82C" opacity="1.000000" stroke="none" 
	d="
M84.206711,66.251984 
	C88.141609,63.467728 92.023026,61.042225 95.904449,58.616722 
	C96.233261,59.000725 96.562073,59.384727 96.890884,59.768730 
	C96.666214,60.590565 96.707069,61.816006 96.172913,62.167427 
	C93.155876,64.152351 90.053452,66.029976 86.843468,67.678001 
	C86.278343,67.968147 85.066452,66.998550 84.206711,66.251984 
z"/>
<path fill="#FDC92D" opacity="1.000000" stroke="none" 
	d="
M51.576569,54.445541 
	C52.134857,56.004383 52.509262,57.239815 52.883663,58.475246 
	C52.349644,58.716694 51.815624,58.958141 51.281601,59.199589 
	C47.591763,55.857800 45.764965,51.363358 44.422657,46.486931 
	C48.717903,47.342606 49.532703,51.200890 51.576569,54.445541 
z"/>
<path fill="#FDC82B" opacity="1.000000" stroke="none" 
	d="
M32.416763,72.642685 
	C30.238638,71.772957 28.460518,70.985603 25.959955,69.878357 
	C30.467140,67.661942 37.831524,69.476402 40.782486,74.005951 
	C38.127243,73.578987 35.472004,73.152023 32.416763,72.642685 
z"/>
</svg>